<?xml version="1.0" encoding="UTF-8"?>
<svg width="131px" height="66px" viewBox="0 0 131 66" version="1.1" xmlns="http://www.w3.org/2000/svg" xmlns:xlink="http://www.w3.org/1999/xlink">
    <title>phone + laptop</title>
    <g id="Page-1" stroke="none" stroke-width="1" fill="none" fill-rule="evenodd">
        <g id="Ncom_Gameguide_curatedlist_desktop" transform="translate(-151.000000, -1882.000000)" fill="#E60012">
            <g id="CTA-how-to-buy-digital-&gt;-Copy-4" transform="translate(110.000000, 1865.000000)">
                <g id="phone-+-laptop" transform="translate(41.000000, 17.000000)">
                    <path d="M114.17317,36.1052632 C114.17317,38.2328947 112.419745,39.9736842 110.279553,39.9736842 L74.7204468,39.9736842 C72.5789574,39.9736842 70.8268298,38.2328947 70.8268298,36.1052632 L70.8268298,12.2654737 C70.8268298,10.1378421 72.5789574,8.39705263 74.7204468,8.39705263 L110.279553,8.39705263 C112.419745,8.39705263 114.17317,10.1378421 114.17317,12.2654737 L114.17317,36.1052632 Z M119.106383,0 L65.893617,0 C63.7521277,0 62,1.74078947 62,3.86842105 L62,45.1315789 C62,47.2592105 63.7521277,49 65.893617,49 L119.106383,49 C121.247872,49 123,47.2592105 123,45.1315789 L123,3.86842105 C123,1.74078947 121.247872,0 119.106383,0 L119.106383,0 Z" id="Fill-1"></path>
                    <path d="M82.0508475,59.4210526 L84.6271186,50.2105263 L101.372881,50.2105263 L103.949153,59.4210526 L82.0508475,59.4210526 Z M123.271186,44.9473684 C123.271186,42.7763158 121.532203,41 119.40678,41 L66.5932203,41 C64.4677966,41 62.7288136,42.7763158 62.7288136,44.9473684 L55,62.0526316 C55,64.2236842 56.7389831,66 58.8644068,66 L127.135593,66 C129.261017,66 131,64.2236842 131,62.0526316 L123.271186,44.9473684 Z" id="Fill-3"></path>
                    <path d="M31.1111111,54.3409091 C31.1111111,55.7659091 29.9444444,56.9318182 28.5185185,56.9318182 L6.48148148,56.9318182 C5.05555556,56.9318182 3.88888889,55.7659091 3.88888889,54.3409091 L3.88888889,20.6590909 C3.88888889,19.2340909 5.05555556,18.0681818 6.48148148,18.0681818 L28.5185185,18.0681818 C29.9444444,18.0681818 31.1111111,19.2340909 31.1111111,20.6590909 L31.1111111,54.3409091 Z M17.5,64.0568182 C16.0688889,64.0568182 14.9074074,62.8960909 14.9074074,61.4659091 C14.9074074,60.0357273 16.0688889,58.875 17.5,58.875 C18.9311111,58.875 20.0925926,60.0357273 20.0925926,61.4659091 C20.0925926,62.8960909 18.9311111,64.0568182 17.5,64.0568182 L17.5,64.0568182 Z M12.0983333,11.80725 L22.9016667,11.80725 C23.4953704,11.80725 23.9814815,12.2930455 23.9814815,12.8863636 C23.9814815,13.4796818 23.4953704,13.9654773 22.9016667,13.9654773 L12.0983333,13.9654773 C11.5046296,13.9654773 11.0185185,13.4796818 11.0185185,12.8863636 C11.0185185,12.2930455 11.5046296,11.80725 12.0983333,11.80725 L12.0983333,11.80725 Z M32.4074074,9 L2.59259259,9 C1.16148148,9 0,10.1607273 0,11.5909091 L0,63.4090909 C0,64.8392727 1.16148148,66 2.59259259,66 L32.4074074,66 C33.8385185,66 35,64.8392727 35,63.4090909 L35,11.5909091 C35,10.1607273 33.8385185,9 32.4074074,9 L32.4074074,9 Z" id="Fill-5"></path>
                </g>
            </g>
        </g>
    </g>
</svg>