<svg width="117px" height="63px" viewBox="0 0 117 63" xmlns="http://www.w3.org/2000/svg" stroke="#e60012" fill="transparent">
    <path d="M 20 17 l 67 0 l 0 43 l -67 0 l 0 -43 l 67 0" stroke-width="4" stroke-linejoin="round"/>
    <line x1="67.6" y1="51.5" x2="78.4" y2="51.5" stroke-width="2" stroke-linecap="square"/>
    <path d="M7.87165775,3 C7.87165775,3 7.44385027,12.876652 16,12.876652 C16,12.876652 8.04278075,11.8722467 8.04278075,22 C8.04278075,22 8.04278075,12.3744493 0,12.6255507 C0,12.6255507 8.04278075,12.7929515 7.87165775,3 Z" transform="translate(8.000000, 12.500000) scale(-1, 1) translate(-8.000000, -12.500000)"/>
    <path d="M106.871658,26 C106.871658,26 106.44385,35.876652 115,35.876652 C115,35.876652 107.042781,34.8722467 107.042781,45 C107.042781,45 107.042781,35.3744493 99,35.6255507 C99,35.6255507 107.042781,35.7929515 106.871658,26 Z" transform="translate(107.000000, 35.500000) scale(-1, 1) translate(-107.000000, -35.500000)"/>
    <path d="M96.8716578,0 C96.8716578,0 96.4438503,9.87665198 105,9.87665198 C105,9.87665198 97.0427807,8.8722467 97.0427807,19 C97.0427807,19 97.0427807,9.37444934 89,9.62555066 C89,9.62555066 97.0427807,9.79295154 96.8716578,0 Z" transform="translate(97.000000, 9.500000) scale(-1, 1) translate(-97.000000, -9.500000)"/>
    <line x1="21.5" y1="31.5" x2="84.5" y2="31.5" stroke-width="7" stroke-linecap="square"/>
</svg>