<?xml version="1.0" encoding="UTF-8"?>
<svg width="70px" height="64px" viewBox="0 0 70 64" version="1.1" xmlns="http://www.w3.org/2000/svg" xmlns:xlink="http://www.w3.org/1999/xlink">
    <title>Group 7</title>
    <g id="Page-1" stroke="none" stroke-width="1" fill="none" fill-rule="evenodd">
        <g id="CRMRec_icon_desktop_starbling" transform="translate(-917.000000, -1881.000000)">
            <g id="CTA-how-to-buy-digital-&gt;-Copy-6" transform="translate(898.000000, 1865.000000)">
                <g id="Group-7" transform="translate(19.000000, 16.000000)">
                    <path d="M62.9127519,29.5014614 C62.5974691,28.6134449 61.5584238,27.6614448 52.8197354,26.6648499 C49.3417096,26.2693142 45.8914446,26.019196 44.5509969,25.9280677 C44.0612179,24.7084993 42.7762916,21.5810528 41.3406641,18.4749341 C37.7178859,10.6553484 36.4051988,10 35.4613332,10 C34.5154847,10 33.2027977,10.6553484 29.5482929,18.4826897 C28.0968021,21.5926862 26.8019613,24.7259494 26.3062336,25.9455178 C24.9737174,26.0308294 21.5611277,26.2615586 18.1207773,26.6415831 C9.45545661,27.5994 8.400548,28.5882392 8.0912139,29.4394165 C8.03965822,29.586773 8,29.7457628 8,29.9338362 C8,30.9071642 9.04102823,32.665747 14.4940332,37.5614708 C17.0757832,39.8803958 19.730901,42.0635978 20.7679634,42.9070195 C20.4368172,44.1789382 19.6000288,47.4634357 18.9000613,50.8177336 C18.0652558,54.8215631 17.7698021,57.2161053 17.7698021,58.683853 C17.7698021,60.3047738 18.1306919,60.7972545 18.5193424,61.0842118 C19.2986264,61.6620041 20.7064931,61.8675276 28.4279482,57.6135799 C31.4974943,55.9209197 34.4579803,54.1196812 35.5981541,53.4177992 C36.7303962,54.1138645 39.6551898,55.8898973 42.6930093,57.5670463 C50.3113531,61.7763993 51.7668097,61.6174094 52.5341962,61.1404399 C52.984317,60.8612382 53.3828821,60.378452 53.3828821,58.664464 C53.3828821,57.183144 53.0854454,54.7827851 52.2605545,50.8022224 C51.5566211,47.3916964 50.7059523,44.0432152 50.3728233,42.7538464 C51.4019541,41.922058 54.0193965,39.779573 56.567437,37.5091205 C61.9748351,32.6793193 63,30.94982 63,29.9842476 C63,29.800052 62.9623247,29.64494 62.9127519,29.5014614 Z" id="Path" stroke="#E50D17" stroke-width="4"></path>
                    <g id="Group" transform="translate(48.213087, 0.151712)" fill="#E60012">
                        <rect id="Rectangle" transform="translate(15.293753, 11.547032) rotate(-308.000000) translate(-15.293753, -11.547032) " x="14.2937533" y="5.54703222" width="2" height="12" rx="1"></rect>
                        <rect id="Rectangle-Copy-2" transform="translate(3.000000, 5.000000) rotate(-338.000000) translate(-3.000000, -5.000000) " x="2" y="1" width="2" height="8" rx="1"></rect>
                    </g>
                    <g id="Group-Copy" transform="translate(11.713087, 8.651712) scale(-1, 1) translate(-11.713087, -8.651712) translate(1.213087, 0.151712)" fill="#E60012">
                        <rect id="Rectangle" transform="translate(15.293753, 11.547032) rotate(-308.000000) translate(-15.293753, -11.547032) " x="14.2937533" y="5.54703222" width="2" height="12" rx="1"></rect>
                        <rect id="Rectangle-Copy-2" transform="translate(3.000000, 5.000000) rotate(-338.000000) translate(-3.000000, -5.000000) " x="2" y="1" width="2" height="8" rx="1"></rect>
                    </g>
                    <rect id="Rectangle-Copy-3" fill="#E60012" transform="translate(65.489605, 53.529349) rotate(-230.000000) translate(-65.489605, -53.529349) " x="64.4896053" y="49.5293492" width="2" height="8" rx="1"></rect>
                    <rect id="Rectangle-Copy-4" fill="#E60012" transform="translate(4.489605, 53.529349) scale(-1, 1) rotate(-230.000000) translate(-4.489605, -53.529349) " x="3.4896053" y="49.5293492" width="2" height="8" rx="1"></rect>
                </g>
            </g>
        </g>
    </g>
</svg>